<svg xmlns="http://www.w3.org/2000/svg" width="316" height="28">
  <defs>
    <clipPath id="wxdda">
      <path d="M0 27.935h315.774V0H0z" />
    </clipPath>
  </defs>
  <g>
    <g>
      <g>
        <path fill="#fff"
              d="M10.614 11.47A3.315 3.315 0 0 0 7.3 14.806a3.315 3.315 0 0 0 3.314 3.336 3.315 3.315 0 0 0 3.314-3.336c0-1.85-1.504-3.336-3.314-3.336" />
      </g>
      <g>
        <path fill="#64c800" d="M101.513 10.6H86.92v2.018h6.1v11.41h2.366v-11.41h6.127z" />
      </g>
      <g>
        <path fill="#64c800"
              d="M109.058 13.626c-1.225-.309-2.618-.365-3.955.14-.418.14-.78.364-1.086.616v-.784h-2.367v10.4h2.367v-5.86c0-.42.084-.812.25-1.12.168-.337.39-.617.67-.841.306-.253.612-.42 1.002-.533a4.519 4.519 0 0 1 1.921-.112c.195.028.418.084.613.168l.39.14.557-2.158z" />
      </g>
      <g>
        <path fill="#64c800"
              d="M121 15.357c.39.533.586 1.177.586 1.878v6.728h-2.367v-.84c-.418.28-.892.532-1.42.672a7.418 7.418 0 0 1-2.34.364 20.64 20.64 0 0 1-1.838-.084 9.295 9.295 0 0 1-1.838-.448c-.585-.197-1.059-.56-1.448-1.038-.39-.476-.585-1.12-.585-1.934 0-.645.14-1.177.473-1.626a3.306 3.306 0 0 1 1.226-1.009 5.73 5.73 0 0 1 1.615-.477c.557-.084 1.17-.112 1.754-.112h4.4v-.056c0-.392-.11-.672-.278-.925a1.778 1.778 0 0 0-.752-.588c-.306-.197-.696-.28-1.114-.337-.78-.084-1.476-.112-2.311 0-.363.084-.697.168-1.03.28-.335.113-.586.28-.864.477-.223.168-.418.365-.53.645l-2.227-.533.028-.056c.195-.56.501-1.037.947-1.43.417-.364.89-.644 1.42-.897a7.627 7.627 0 0 1 1.615-.448c1.253-.168 2.395-.14 3.62.028.669.084 1.338.28 1.866.56.557.309 1.03.702 1.393 1.206zm-1.865 4.934v-.953h-4.261c-.919 0-1.67.112-2.2.364-.446.168-.64.505-.64 1.01 0 .336.139.588.306.756.223.196.501.392.835.477.334.112.724.168 1.142.196.39.028.78.028 1.114.028.362 0 .808-.028 1.253-.112a5.967 5.967 0 0 0 1.253-.393c.363-.168.669-.364.92-.616.223-.225.334-.449.334-.757z" />
      </g>
      <g>
        <path fill="#64c800"
              d="M133.479 20.384a2.049 2.049 0 0 1-.53.841c-.278.253-.556.42-.919.561-.362.14-.751.252-1.141.308-1.059.169-2.006.113-2.84-.112a4.673 4.673 0 0 1-1.31-.588 2.946 2.946 0 0 1-.835-1.01 3.526 3.526 0 0 1-.307-1.485c0-.561.084-1.065.307-1.486.194-.42.473-.785.807-1.037.362-.28.78-.505 1.253-.645.808-.252 1.755-.308 2.813-.112a5.3 5.3 0 0 1 1.142.308c.362.14.64.337.947.561.278.252.445.505.529.84l.111.337 2.228-.532-.14-.393c-.25-.617-.556-1.15-1.001-1.598a4.402 4.402 0 0 0-1.477-.98 5.863 5.863 0 0 0-1.726-.505 9.9 9.9 0 0 0-4.177.168c-.78.252-1.449.56-2.034 1.009-.584.449-1.058 1.037-1.42 1.71-.362.673-.529 1.458-.529 2.355 0 .925.167 1.738.53 2.383.361.644.835 1.261 1.42 1.682a5.174 5.174 0 0 0 2.06.953c.78.196 1.588.308 2.423.308.585 0 1.226-.056 1.81-.14.613-.084 1.198-.28 1.727-.505.53-.252 1.03-.56 1.448-.981.446-.42.78-.953.975-1.598l.14-.392-2.256-.505z" />
      </g>
      <g>
        <path fill="#64c800"
              d="M148.851 13.62h-3.787l-5.737 3.785V10.06h-2.367v13.96h2.367v-4.149l.696-.476 6.155 4.625h3.648l-7.853-5.886z" />
      </g>
      <g>
        <path fill="#64c800"
              d="M170.468 13.626c-1.225-.309-2.618-.365-3.955.14-.417.14-.78.364-1.086.616v-.784h-2.367v10.4h2.367v-5.86c0-.42.084-.812.25-1.12a2.48 2.48 0 0 1 .67-.841c.306-.253.612-.42 1.002-.533a4.52 4.52 0 0 1 1.253-.168c.279 0 .473.028.668.056.195.028.418.084.613.168l.39.14.557-2.158z" />
      </g>
      <g />
      <g clip-path="url(#wxdda)">
        <path fill="#fff" d="M25.32 24.028h2.367V10.6H25.32z" />
      </g>
      <g clip-path="url(#wxdda)">
        <path fill="#fff"
              d="M40.106 14.495c-.474-.364-1.03-.617-1.699-.813-.613-.168-1.337-.252-2.061-.252-.891 0-1.727.14-2.506.448a4.756 4.756 0 0 0-1.393.841v-1.093H30.08v10.4h2.367v-5.774c0-.449.111-.842.334-1.15.25-.364.53-.645.863-.869.363-.252.78-.42 1.254-.532.473-.112.919-.168 1.365-.168.946 0 1.698.196 2.255.616.53.393.78.981.78 1.794v6.14h2.367v-6.168c0-.757-.111-1.43-.39-1.99a3.675 3.675 0 0 0-1.17-1.43" />
      </g>
      <g clip-path="url(#wxdda)">
        <path fill="#fff"
              d="M53.193 18.614a7.558 7.558 0 0 0-1.531-.504c-.53-.112-1.114-.196-1.7-.28l-1.67-.169c-.53-.056-.975-.112-1.393-.252-.39-.084-.668-.196-.89-.364-.14-.113-.251-.253-.251-.42 0-.253.055-.393.195-.534.167-.168.39-.308.668-.42.307-.112.64-.168 1.03-.253.808-.084 1.671-.084 2.34 0 .334.029.612.113.89.197.252.084.474.252.67.392.194.169.39.393.556.645l.14.252 2.227-.588-.167-.42c-.25-.534-.529-.954-.946-1.318-.39-.337-.836-.59-1.337-.813-.474-.168-1.003-.336-1.56-.393-1.142-.14-2.34-.112-3.48.028-.641.085-1.254.28-1.783.505a3.873 3.873 0 0 0-1.365 1.01c-.39.447-.557 1.008-.557 1.71 0 .588.14 1.064.474 1.457.306.364.668.616 1.141.84.446.197.975.365 1.504.45.53.083 1.086.168 1.7.252.556.056 1.113.112 1.614.168.502.056.975.14 1.393.28.39.112.668.252.89.42.168.14.252.337.252.561 0 .224-.056.42-.251.533a1.984 1.984 0 0 1-.808.392c-.362.084-.752.14-1.142.169-.918.056-1.726.056-2.422-.028a3.102 3.102 0 0 1-1.003-.253 3.086 3.086 0 0 1-.836-.476c-.25-.197-.473-.477-.668-.813l-.14-.28-2.227.728.167.393c.279.588.613 1.065 1.058 1.457.446.365.92.645 1.448.87.53.196 1.059.336 1.671.392.557.056 1.142.084 1.755.084s1.225-.028 1.894-.084c.668-.056 1.309-.196 1.866-.449a3.35 3.35 0 0 0 1.476-.98c.417-.45.612-1.038.612-1.795 0-.589-.139-1.093-.473-1.514-.167-.252-.557-.588-1.03-.785" />
      </g>
      <g clip-path="url(#wxdda)">
        <path fill="#fff"
              d="M57.4 10.06c-.39 0-.752.112-1.002.393-.279.28-.418.588-.418.98 0 .393.14.73.418.982.278.28.613.392 1.002.392.39 0 .752-.112 1.003-.392.278-.28.417-.589.417-.981 0-.393-.139-.73-.417-.981-.25-.281-.585-.393-1.003-.393" />
      </g>
      <g clip-path="url(#wxdda)">
        <path fill="#fff" d="M56.23 24.02h2.367v-10.4H56.23z" />
      </g>
      <g clip-path="url(#wxdda)">
        <path fill="#fff"
              d="M67.812 15.61c.473.085.919.253 1.364.421.418.168.78.42 1.03.729.251.252.363.533.363.869v2.495c0 .336-.112.617-.362.869-.28.28-.613.504-1.003.673-.418.168-.863.336-1.337.392a6.82 6.82 0 0 1-1.225.112 6.072 6.072 0 0 1-1.615-.196 3.842 3.842 0 0 1-1.281-.589 2.6 2.6 0 0 1-.808-1.009c-.195-.42-.306-.897-.306-1.486 0-.56.083-1.037.306-1.457.167-.42.474-.785.808-1.037a3.219 3.219 0 0 1 1.225-.645c.473-.197 1.03-.28 1.615-.28.334 0 .752.055 1.226.14zm2.757-1.065c-.474-.336-.975-.56-1.532-.757-1.671-.504-3.37-.476-4.846-.028-.78.253-1.42.561-2.005 1.01a5.138 5.138 0 0 0-1.364 1.71c-.335.672-.502 1.457-.502 2.354 0 .925.167 1.738.502 2.411.334.673.807 1.262 1.392 1.682.557.449 1.253.757 2.033.953.78.197 1.56.309 2.45.309.39 0 .808-.028 1.198-.056.418-.056.808-.113 1.225-.253.39-.112.78-.28 1.114-.448l.39-.197v.813h2.367V10.06h-2.394v4.485z" />
      </g>
      <g clip-path="url(#wxdda)">
        <path fill="#fff"
              d="M83.91 21.275c.278-.196.5-.504.695-.785l2.145.673-.028.056c-.306.617-.668 1.122-1.114 1.514-.446.393-.919.673-1.448.925a7.956 7.956 0 0 1-1.699.449c-.585.084-1.225.112-1.866.112a9.738 9.738 0 0 1-2.423-.308 6.86 6.86 0 0 1-2.033-.981 5.186 5.186 0 0 1-1.42-1.683c-.362-.644-.529-1.457-.529-2.382 0-.897.167-1.682.53-2.355a4.885 4.885 0 0 1 1.392-1.71c.584-.449 1.225-.757 2.005-1.01 1.476-.448 3.23-.476 4.734-.027.724.196 1.392.56 1.977.98.585.421 1.059.954 1.42 1.627.363.673.558 1.401.558 2.27v1.038H76.668c.056.336.195.616.335.868.222.365.501.645.863.898.362.224.78.42 1.253.532.891.225 1.894.197 2.757.112.362-.028.752-.168 1.114-.28.335-.112.64-.28.92-.533m-6.768-4.323c-.14.223-.278.446-.39.67h7.474a3.122 3.122 0 0 0-.363-.67 4.094 4.094 0 0 0-.864-.838 3.854 3.854 0 0 0-1.144-.502 6.316 6.316 0 0 0-2.705 0c-.39.112-.78.307-1.143.502a4.094 4.094 0 0 0-.865.838" />
      </g>
      <g clip-path="url(#wxdda)">
        <path fill="#64c800"
              d="M158.52 21.275c.25-.196.472-.504.695-.785l2.145.673-.028.056c-.306.617-.668 1.122-1.114 1.514-.446.393-.92.673-1.448.925a7.956 7.956 0 0 1-1.699.449c-.585.084-1.225.112-1.866.112a9.737 9.737 0 0 1-2.423-.308 6.86 6.86 0 0 1-2.033-.981 5.19 5.19 0 0 1-1.42-1.683c-.362-.644-.529-1.457-.529-2.382 0-.897.167-1.682.529-2.355a4.888 4.888 0 0 1 1.392-1.71c.585-.449 1.226-.757 2.006-1.01 1.476-.448 3.23-.476 4.734-.027a5.703 5.703 0 0 1 1.977.98c.585.421 1.058.954 1.42 1.627.363.673.558 1.401.558 2.27v1.038h-10.138c.056.336.195.616.335.868.222.365.5.645.863.898.362.224.78.42 1.253.532.891.225 1.894.197 2.757.112.362-.028.752-.168 1.114-.28.335-.112.64-.28.92-.533m-6.77-4.323c-.167.223-.279.446-.39.67h7.478a3.12 3.12 0 0 0-.363-.67 4.09 4.09 0 0 0-.865-.838 3.854 3.854 0 0 0-1.144-.502 6.321 6.321 0 0 0-2.707 0c-.39.112-.781.307-1.143.502a4.082 4.082 0 0 0-.865.838" />
      </g>
      <g clip-path="url(#wxdda)">
        <path fill="#64c800"
              d="M11.307 0v2.243c1.337 1.738 7.018 7.288 7.045 10.876a7.733 7.733 0 0 1-7.742 7.793c-4.288 0-7.742-3.476-7.742-7.793 0-3.448 5.682-8.914 7.046-10.764V0C7.547 1.962 0 8.634 0 13.624c0 5.887 4.762 10.708 10.638 10.708 5.877 0 10.639-4.793 10.639-10.708C21.22 8.634 13.7 1.99 11.307 0" />
      </g>
      <g class="pp_text" clip-path="url(#wxdda)">
        <path fill="#fff"
              d="M184.644 17.56c-.888.727-2.151 1.09-3.791 1.09h-1.35v4.89h-2.123V10.47h3.74c1.622 0 2.836.333 3.645 1.001.808.668 1.213 1.652 1.213 2.95 0 1.366-.445 2.411-1.334 3.138zm-5.142-.717h1.128c1.09 0 1.89-.19 2.4-.57.508-.381.762-.976.762-1.785 0-.75-.228-1.308-.684-1.677-.455-.368-1.166-.553-2.131-.553h-1.475z" />
      </g>
      <g class="pp_text" clip-path="url(#wxdda)">
        <path fill="#fff"
              d="M197.082 23.541h-2.096v-6.08c0-.762-.153-1.332-.458-1.707-.305-.376-.788-.563-1.451-.563-.877 0-1.52.264-1.932.791-.412.528-.618 1.411-.618 2.65v4.91h-2.087V9.63h2.087v3.531c0 .567-.035 1.172-.107 1.816h.134c.284-.477.68-.847 1.185-1.11.507-.261 1.097-.393 1.772-.393 2.38 0 3.571 1.208 3.571 3.621z" />
      </g>
      <g class="pp_text" clip-path="url(#wxdda)">
        <path fill="#fff"
              d="M198.59 13.65h2.274l1.998 5.606c.302.798.503 1.55.604 2.253h.072a9.31 9.31 0 0 1 .292-1.194c.142-.468.895-2.69 2.256-6.665h2.256l-4.2 11.202c-.765 2.057-2.038 3.084-3.82 3.084-.462 0-.912-.05-1.35-.152v-1.662c.314.071.672.107 1.074.107 1.007 0 1.715-.587 2.123-1.761l.365-.93z" />
      </g>
      <g class="pp_text" clip-path="url(#wxdda)">
        <path fill="#fff"
              d="M216.52 20.72c0 .967-.349 1.707-1.047 2.222-.699.515-1.7.773-3.003.773-1.308 0-2.36-.2-3.152-.598v-1.815c1.154.536 2.228.804 3.223.804 1.285 0 1.928-.39 1.928-1.17 0-.25-.071-.46-.213-.627-.142-.166-.376-.34-.701-.518-.326-.179-.78-.382-1.36-.608-1.13-.441-1.896-.882-2.296-1.323-.399-.441-.599-1.014-.599-1.717 0-.846.34-1.503 1.017-1.971.678-.468 1.6-.702 2.767-.702 1.154 0 2.247.235 3.277.706l-.675 1.583c-1.06-.441-1.951-.662-2.674-.662-1.1 0-1.652.316-1.652.948 0 .31.144.572.431.786.288.215.913.51 1.879.886.81.316 1.4.605 1.768.867.366.262.639.564.817.907.178.343.265.752.265 1.23" />
      </g>
      <g class="pp_text" clip-path="url(#wxdda)">
        <path fill="#fff"
              d="M218.74 11.032c0 .357.102.639.307.844.203.206.496.309.874.309.368 0 .653-.103.857-.309.205-.205.307-.487.307-.844 0-.377-.102-.665-.307-.868-.204-.203-.49-.304-.857-.304-.378 0-.67.101-.874.304-.205.203-.307.491-.307.868zm.125 12.507h2.086V13.65h-2.086z" />
      </g>
      <g class="pp_text" clip-path="url(#wxdda)">
        <path fill="#fff"
              d="M227.998 23.715c-1.486 0-2.616-.437-3.389-1.31-.773-.872-1.159-2.126-1.159-3.758 0-1.664.404-2.942 1.213-3.836.808-.894 1.976-1.341 3.504-1.341 1.036 0 1.969.193 2.797.58l-.63 1.69c-.883-.345-1.611-.518-2.186-.518-1.699 0-2.548 1.136-2.548 3.406 0 1.109.211 1.942.634 2.5.424.557 1.045.835 1.862.835a5.31 5.31 0 0 0 2.637-.697v1.832c-.373.221-.771.379-1.194.474-.424.096-.937.143-1.541.143" />
      </g>
      <g class="pp_text" clip-path="url(#wxdda)">
        <path fill="#fff"
              d="M233 11.032c0 .357.102.639.306.844.204.206.496.309.875.309.367 0 .653-.103.857-.309.205-.205.306-.487.306-.844 0-.377-.101-.665-.306-.868-.204-.203-.49-.304-.857-.304-.379 0-.67.101-.875.304-.204.203-.306.491-.306.868zm.125 12.507h2.085V13.65h-2.085z" />
      </g>
      <g class="pp_text" clip-path="url(#wxdda)">
        <path fill="#fff"
              d="M244.44 23.537l-.418-1.377h-.071c-.474.602-.95 1.011-1.43 1.229-.48.218-1.096.327-1.848.327-.965 0-1.718-.262-2.26-.787-.542-.525-.813-1.266-.813-2.227 0-1.018.376-1.788 1.129-2.306.751-.519 1.897-.802 3.436-.85l1.697-.053v-.527c0-.632-.147-1.105-.44-1.417-.293-.314-.748-.47-1.363-.47a4.7 4.7 0 0 0-1.448.223c-.461.15-.906.325-1.333.528l-.675-1.502a7.262 7.262 0 0 1 1.75-.639 7.999 7.999 0 0 1 1.795-.219c1.25 0 2.192.274 2.828.823.637.548.955 1.409.955 2.583v6.66zm-1.293-2.07c.458-.426.687-1.024.687-1.792v-.859l-1.259.054c-.98.036-1.693.201-2.139.496-.446.295-.669.747-.669 1.355 0 .44.13.782.39 1.023.26.242.65.362 1.17.362.756 0 1.362-.213 1.82-.639z" />
      </g>
      <g class="pp_text" clip-path="url(#wxdda)">
        <path fill="#fff"
              d="M257.572 23.537h-2.096v-6.08c0-.762-.153-1.332-.458-1.707-.305-.376-.789-.563-1.452-.563-.882 0-1.528.261-1.936.786-.409.525-.613 1.404-.613 2.638v4.926h-2.087v-9.888h1.634l.293 1.296h.107c.296-.47.716-.834 1.26-1.09a4.203 4.203 0 0 1 1.813-.385c2.357 0 3.535 1.207 3.535 3.62z" />
      </g>
      <g class="pp_text" clip-path="url(#wxdda)">
        <path fill="#fff"
              d="M272.874 17.56c-.888.727-2.151 1.09-3.792 1.09h-1.35v4.89h-2.122V10.47h3.739c1.623 0 2.837.333 3.646 1.001.808.668 1.212 1.652 1.212 2.95 0 1.366-.444 2.411-1.333 3.138zm-5.142-.717h1.128c1.09 0 1.89-.19 2.399-.57.509-.381.763-.976.763-1.785 0-.75-.228-1.308-.684-1.677-.455-.368-1.166-.553-2.131-.553h-1.475z" />
      </g>
      <g class="pp_text" clip-path="url(#wxdda)">
        <path fill="#fff"
              d="M285.38 18.575c0 1.615-.412 2.876-1.235 3.782-.823.905-1.969 1.358-3.438 1.358-.917 0-1.728-.208-2.433-.625-.705-.418-1.246-1.016-1.625-1.797-.38-.781-.569-1.687-.569-2.718 0-1.604.409-2.855 1.226-3.755.817-.9 1.968-1.35 3.455-1.35 1.421 0 2.546.46 3.375 1.382.829.92 1.244 2.161 1.244 3.723m-7.15 0c0 2.283.838 3.424 2.513 3.424 1.658 0 2.487-1.141 2.487-3.424 0-2.259-.834-3.389-2.504-3.389-.877 0-1.512.293-1.905.877-.394.584-.591 1.42-.591 2.512" />
      </g>
      <g class="pp_text" clip-path="url(#wxdda)">
        <path fill="#fff"
              d="M292.853 13.47c.42 0 .766.03 1.039.09l-.205 1.957a3.909 3.909 0 0 0-.923-.107c-.835 0-1.511.274-2.03.822-.518.549-.777 1.261-.777 2.137v5.168h-2.087v-9.888h1.634l.275 1.743h.107c.326-.59.75-1.058 1.275-1.403a3.013 3.013 0 0 1 1.692-.519" />
      </g>
      <g class="pp_text" clip-path="url(#wxdda)">
        <path fill="#fff"
              d="M299.465 22.017c.51 0 1.019-.08 1.528-.241v1.583c-.231.1-.528.186-.893.254a6.122 6.122 0 0 1-1.132.103c-1.978 0-2.966-1.049-2.966-3.147v-5.328h-1.342v-.93l1.44-.769.71-2.092h1.288v2.2h2.798v1.59h-2.798v5.293c0 .507.125.881.377 1.122.252.242.582.362.99.362" />
      </g>
      <g class="pp_text" clip-path="url(#wxdda)">
        <path fill="#fff"
              d="M309.19 23.537l-.418-1.377h-.071c-.474.602-.95 1.011-1.43 1.229-.48.218-1.096.327-1.848.327-.965 0-1.718-.262-2.26-.787-.542-.525-.813-1.266-.813-2.227 0-1.018.376-1.788 1.128-2.306.752-.519 1.898-.802 3.437-.85l1.696-.053v-.527c0-.632-.146-1.105-.44-1.417-.292-.314-.747-.47-1.363-.47-.503 0-.985.075-1.447.223-.462.15-.907.325-1.333.528l-.675-1.502a7.264 7.264 0 0 1 1.75-.639 7.995 7.995 0 0 1 1.795-.219c1.249 0 2.192.274 2.828.823.637.548.955 1.409.955 2.583v6.66zm-1.293-2.07c.458-.426.687-1.024.687-1.792v-.859l-1.259.054c-.98.036-1.693.201-2.139.496-.446.295-.669.747-.669 1.355 0 .44.13.782.39 1.023.26.242.65.362 1.17.362.755 0 1.362-.213 1.82-.639z" />
      </g>
      <g class="pp_text" clip-path="url(#wxdda)">
        <path fill="#fff" d="M313.69 23.541h2.087V9.63h-2.087z" />
      </g>
    </g>
  </g>
</svg>