<svg xmlns="http://www.w3.org/2000/svg" width="200" height="118" viewBox="0 0 200 118">
  <g>
    <g>
      <g>
        <path fill="#fff" d="M0 117.614h200V1.11H0z" />
      </g>
      <g>
        <path fill="#e1e4e6" d="M152.178 74.13l-75.377 3.946-1.771-33.75 75.377-3.946z" />
      </g>
      <g>
        <g>
          <path fill="#37414b"
                d="M141.263 98.778a.625.625 0 0 1-.624-.592l-4.545-86.59a3.066 3.066 0 0 0-1.077-2.173 3.395 3.395 0 0 0-2.399-.81l-55.37 2.898c-1.825.095-3.235 1.589-3.144 3.33l1.211 23.074a.624.624 0 0 1-.59.656.619.619 0 0 1-.658-.59l-1.211-23.075c-.128-2.428 1.814-4.51 4.327-4.642l55.37-2.898a4.644 4.644 0 0 1 3.282 1.113 4.305 4.305 0 0 1 1.508 3.052l4.545 86.59a.625.625 0 0 1-.592.656h-.033" />
        </g>
        <g>
          <path fill="#37414b"
                d="M82.24 111.37a4.613 4.613 0 0 1-3.033-1.12 4.31 4.31 0 0 1-1.507-3.052l-1.22-23.23a.625.625 0 0 1 .592-.656.618.618 0 0 1 .657.59l1.22 23.231a3.07 3.07 0 0 0 1.078 2.175c.657.568 1.51.859 2.397.81l47.093-2.78a.624.624 0 1 1 .074 1.247l-47.097 2.78a5.21 5.21 0 0 1-.254.006" />
        </g>
        <g>
          <path fill="#37414b"
                d="M79.928 117.893c-4.155 0-7.63-3.14-7.843-7.18l-3.154-60.105a.624.624 0 0 1 .59-.655c.347-.034.64.246.658.59l3.154 60.105c.184 3.492 3.308 6.179 6.963 5.986l57.658-3.095c.344-.033.64.245.658.59a.624.624 0 0 1-.59.656l-57.66 3.096c-.145.007-.29.012-.434.012" />
        </g>
        <g>
          <path fill="#37414b"
                d="M147.44 105.806a.625.625 0 0 1-.622-.591l-2.157-41.088a.624.624 0 0 1 .592-.655.62.62 0 0 1 .656.59l2.157 41.088a.625.625 0 0 1-.592.656h-.033" />
        </g>
        <g>
          <path fill="#37414b"
                d="M68.349 28.296a.625.625 0 0 1-.624-.591L66.9 11.989c-.106-2.029.616-3.978 2.035-5.49 1.412-1.503 3.346-2.392 5.445-2.502L134.69.841c2.1-.105 4.116.571 5.678 1.92 1.569 1.354 2.491 3.218 2.598 5.248l.52 9.899a.626.626 0 0 1-.592.655.619.619 0 0 1-.657-.59l-.52-9.9c-.088-1.686-.858-3.237-2.167-4.368a6.75 6.75 0 0 0-4.795-1.618L74.446 5.244c-1.776.092-3.409.842-4.599 2.11-1.184 1.26-1.787 2.883-1.698 4.57l.825 15.716a.625.625 0 0 1-.592.655l-.033.001" />
        </g>
        <g>
          <path fill="#fff" d="M100.86 24.309l29.782-1.559" />
        </g>
        <g>
          <path fill="#37414b"
                d="M100.86 25.057a.75.75 0 0 1-.039-1.497L130.601 22a.75.75 0 0 1 .08 1.496l-29.782 1.558a.637.637 0 0 1-.04.002" />
        </g>
        <g>
          <path fill="#fff" d="M101.19 30.592l22.398-1.172" />
        </g>
        <g>
          <path fill="#37414b"
                d="M101.19 31.34a.75.75 0 0 1-.039-1.497l22.398-1.172a.75.75 0 0 1 .078 1.495l-22.398 1.172a.644.644 0 0 1-.04.002" />
        </g>
        <g>
          <path fill="#0af"
                d="M93.793 34.05l-9.454.496a2.499 2.499 0 0 1-2.627-2.363l-.54-10.272a1.665 1.665 0 0 1 1.577-1.75l10.287-.538a2.498 2.498 0 0 1 2.627 2.363l.496 9.441a2.498 2.498 0 0 1-2.366 2.624" />
        </g>
        <g>
          <path fill="#fff" d="M91.265 23.98l-3.672 4.076-1.674-1.5-.969 1.074 2.75 2.473 4.64-5.15z" />
        </g>
        <g>
          <path fill="#0af"
                d="M95.603 67.31l-9.454.496a2.499 2.499 0 0 1-2.627-2.363l-.54-10.272a1.664 1.664 0 0 1 1.577-1.748l10.287-.54a2.498 2.498 0 0 1 2.627 2.363l.496 9.442a2.497 2.497 0 0 1-2.366 2.623" />
        </g>
        <g>
          <path fill="#fff" d="M93.075 57.24l-3.672 4.075-1.674-1.5-.969 1.074 2.75 2.473 4.64-5.15z" />
        </g>
        <g>
          <path fill="#fff" d="M102.65 56.988l29.782-1.558" />
        </g>
        <g>
          <path fill="#37414b"
                d="M102.65 57.737a.75.75 0 0 1-.039-1.498l29.78-1.557a.745.745 0 0 1 .79.709.748.748 0 0 1-.71.786l-29.782 1.558a.644.644 0 0 1-.04.002" />
        </g>
        <g>
          <path fill="#fff" d="M102.98 63.266l25.34-1.326" />
        </g>
        <g>
          <path fill="#37414b"
                d="M102.98 64.014a.75.75 0 0 1-.039-1.497l25.34-1.326a.748.748 0 1 1 .08 1.495l-25.342 1.327a.644.644 0 0 1-.04.001" />
        </g>
        <g>
          <path fill="#0af"
                d="M97.423 100.54l-9.454.496a2.499 2.499 0 0 1-2.627-2.363l-.54-10.272a1.664 1.664 0 0 1 1.578-1.748l10.286-.54a2.499 2.499 0 0 1 2.627 2.363l.496 9.442a2.497 2.497 0 0 1-2.366 2.623" />
        </g>
        <g>
          <path fill="#fff" d="M94.895 90.48l-3.672 4.075-1.674-1.5-.969 1.074 2.75 2.473 4.64-5.148z" />
        </g>
        <g>
          <path fill="#fff" d="M104.47 90.457l20.188-1.057" />
        </g>
        <g>
          <path fill="#37414b"
                d="M104.47 91.205a.75.75 0 0 1-.039-1.497l20.188-1.056a.75.75 0 0 1 .078 1.495l-20.188 1.056a.644.644 0 0 1-.04.002" />
        </g>
        <g>
          <path fill="#fff" d="M104.8 96.729l29.782-1.559" />
        </g>
        <g>
          <path fill="#37414b"
                d="M104.8 97.477a.75.75 0 0 1-.039-1.497l29.78-1.558a.746.746 0 0 1 .79.709.748.748 0 0 1-.71.786l-29.782 1.559a.644.644 0 0 1-.04.001" />
        </g>
        <g>
          <path fill="#e1e4e6"
                d="M37.716 70.57a3.133 3.133 0 0 1 3.136 3.131 3.133 3.133 0 0 1-3.136 3.132A3.133 3.133 0 0 1 34.58 73.7zm0 1.25c-1.042 0-1.886.84-1.886 1.876a1.88 1.88 0 0 0 1.886 1.876 1.88 1.88 0 0 0 1.886-1.876z" />
        </g>
        <g>
          <path fill="#e1e4e6"
                d="M52.67 91.34l.015.06 1.26-.076a484.208 484.208 0 0 0-2.628-77.07l-.857.052-.065-1.076c-.083-1.363-1.257-2.4-2.625-2.38" />
        </g>
        <g>
          <path fill="#0af" d="M47.99 14.457l2.47-.15-.065-1.076a2.475 2.475 0 0 0-4.94.3l.065 1.077z" />
        </g>
        <g>
          <path fill="#0af" d="M46.095 48.29l-.215-2.887 7.957-.483.136 2.892z" />
        </g>
        <g>
          <path fill="#37414b"
                d="M54.941 58.141a486.95 486.95 0 0 1-.992 44.039.617.617 0 0 1-.622.586.618.618 0 0 1-.608-.503 487.034 487.034 0 0 1-6.33-43.603c-.34-3.424-.64-6.862-.906-10.307-.001-.01-.007-.019-.008-.029 0-.007.004-.014.004-.021-.073-.937-.138-1.875-.205-2.813-.003-.018-.013-.033-.014-.052 0-.016.007-.03.007-.047a486.613 486.613 0 0 1-1.226-30.701.621.621 0 0 1 .583-.65l.238-.014-.028-.458a3.066 3.066 0 0 1 .773-2.236 3.081 3.081 0 0 1 2.13-1.037 3.101 3.101 0 0 1 2.238.771c.62.549.989 1.304 1.039 2.128l.027.456.223-.013a.626.626 0 0 1 .67.548 486.247 486.247 0 0 1 2.51 30.652c.003.015.012.029.013.045 0 .018-.007.034-.008.051.048.94.097 1.88.139 2.819 0 .007.005.014.006.021 0 .01-.005.018-.005.028.154 3.45.273 6.9.352 10.34zm-9.655-42.898c.09 9.8.49 19.677 1.18 29.508l6.711-.408a486.379 486.379 0 0 0-2.41-29.434l-.27.016v.001h-.002l-4.938.3h-.006zm1.267 30.735c.04.55.075 1.1.116 1.65l6.655-.405c-.025-.55-.057-1.1-.084-1.651zm.216 2.886c.255 3.233.536 6.459.855 9.672a485.699 485.699 0 0 0 4.307 32.292l1.412-.085a485.72 485.72 0 0 0 .358-32.579 480.2 480.2 0 0 0-.326-9.7zm5.365 43.184c.289 1.694.584 3.384.889 5.071.098-1.71.186-3.425.266-5.141zM46.101 13.96l3.701-.226-.028-.459a1.85 1.85 0 0 0-1.964-1.742c-.494.03-.946.25-1.275.623a1.852 1.852 0 0 0-.461 1.346z" />
        </g>
        <g>
          <path fill="#0af"
                d="M49.963 101.814c-3.398 2.11-5.326.267-6.733-1.078a10.644 10.644 0 0 0-.603-.55c-.164-.133-.283-.203-.36-.185-.023.002-.06.011-.103.066-1.506 1.858-2.87 2.478-4.17 1.9-.734-.328-1.396-1.063-2.02-2.242a7.68 7.68 0 0 1-1.054 1.349c-.702.706-1.498 1.204-2.366 1.477-1.057.335-2.114.302-3.06-.099a3.999 3.999 0 0 1-1.126-.718 6.455 6.455 0 0 1-2.617 1.407l-.027.004c-.443.118-.905.18-1.343.18-.119 0-.236-.005-.35-.015-.703-.055-1.346-.29-1.856-.68a3.108 3.108 0 0 1-1.018-1.358c-.222-.565-.307-1.215-.25-1.931.143-1.79 1.193-4.016 3.038-6.435a.655.655 0 0 1 .92-.123.652.652 0 0 1 .124.918c-1.691 2.216-2.65 4.201-2.772 5.743-.042.52.013.973.163 1.35.128.327.326.594.59.795.309.234.711.378 1.164.413.396.031.84-.012 1.284-.127a5.154 5.154 0 0 0 2.13-1.164c-.42-.735-.626-1.612-.6-2.543.047-1.645.806-3.409 2.196-5.1a.657.657 0 0 1 1.147.244c.337 1.286.464 2.507.374 3.63-.116 1.47-.59 2.758-1.405 3.833.221.199.471.357.743.47.652.275 1.397.294 2.156.055.666-.21 1.28-.596 1.83-1.15.563-.568 1.039-1.295 1.416-2.163a.655.655 0 1 1 1.207.01c.676 1.61 1.285 2.492 1.916 2.774.682.306 1.537-.195 2.614-1.525.363-.448.735-.66 1.148-.638.34.016.709.193 1.16.557.221.178.445.393.684.621 1.1 1.053 2.6 2.488 5.135.915a.655.655 0 0 1 .905.21zm-20.658-6.731c-.658 1.068-1.019 2.143-1.047 3.122-.014.505.06.976.217 1.404.501-.796.798-1.727.88-2.77z" />
        </g>
        <g>
          <path fill="#fff" d="M20.89 105.936h30.834" />
        </g>
        <g>
          <path fill="#37414b" d="M51.72 106.558H20.884a.625.625 0 1 1 0-1.248h30.834a.625.625 0 1 1 0 1.248" />
        </g>
        <g>
          <path fill="#e1e4e6"
                d="M168.635 81.98c2.477 0 4.485 2.02 4.485 4.51 0 2.492-2.008 4.51-4.485 4.51-2.477 0-4.485-2.018-4.485-4.51zm0 1.798a2.704 2.704 0 0 0-2.697 2.712 2.704 2.704 0 0 0 2.697 2.712 2.704 2.704 0 0 0 2.697-2.712z" />
        </g>
        <g>
          <path fill="#0af" d="M179.07 72.1l-2.532 2.591-1.04-1.059-.668.682 1.708 1.747 3.2-3.274z" />
        </g>
        <g>
          <path fill="#0af"
                d="M147.464 57.225c17.555-10.356 15.097-27.98 15.097-27.98-9.027-1.646-15.097-5.025-15.097-5.025s-6.07 3.379-15.096 5.025c0 0-2.459 17.624 15.096 27.98" />
        </g>
        <g>
          <path fill="#fff" d="M154.75 33.69l-9.033 9.003-3.169-3.147-2.058 2.052 5.227 5.212 11.09-11.055z" />
        </g>
      </g>
    </g>
  </g>
</svg>